<?xml version="1.0" encoding="UTF-8"?>
<svg id="Layer_1" data-name="Layer 1" xmlns="http://www.w3.org/2000/svg" viewBox="0 0 792 612">
  <defs>
    <style>
      .cls-1 {
        fill: #fff;
      }
    </style>
  </defs>
  <path class="cls-1" d="M424.34,287.98c3.36-4.18,5.49-8.57,6.31-13.24v-10.29l.34-140.67c0-11.52.14-23.18.27-35.05.21-11.8.41-23.32.62-34.43l.62-30.8-1.78-.62c-7.27,2.74-12.41,4.6-15.57,5.62-6.65,2.33-14.33,4.73-23.11,7.27-8.85,2.54-17.63,5.01-26.41,7.34l-24.07,6.17v9.67c6.1-.55,10.01-.96,11.73-1.17,1.78-.21,3.84-.27,6.17-.27,9.94,0,16.25,2.26,18.93,6.72,2.61,4.53,3.91,12.69,3.91,24.62v196.98c.96,1.23,1.99,2.4,3.16,3.43,5.21,4.66,11.25,7,18.04,7,9.4,0,16.32-2.74,20.85-8.3Z"/>
  <path class="cls-1" d="M530.06,458.93c-11.32,16.67-21.47,28.81-30.45,36.49-3.98,3.29-8.02,6.17-12.21,8.64,0,.07-.07.07-.14.07-12.69,7.48-26.68,11.25-41.91,11.25-28.74,0-51.58-11.73-68.52-35.25-16.87-23.46-25.31-50-25.31-79.56,0-32.3,7.61-58.16,22.98-77.64,15.36-19.48,34.16-29.22,56.45-29.22,10.56,0,19.07,2.06,25.51,6.17,6.24,4.25,10.63,11.59,13.24,21.95l3.5,14.06c1.78,7.06,4.53,12.76,8.09,17.15.96,1.23,1.99,2.4,3.16,3.43,5.21,4.66,11.25,7,18.04,7,9.4,0,16.32-2.74,20.85-8.3,3.36-4.18,5.49-8.57,6.31-13.24.27-1.51.41-3.15.41-4.73,0-1.78-.14-3.57-.41-5.35v-.21c-1.92-12.89-10.63-24.83-26.13-35.8-6.86-4.94-14.27-8.85-22.22-11.8-12.41-4.73-26.06-7.06-40.95-7.06-39.09,0-71.47,14.54-97.05,43.69-25.58,29.15-38.41,63.92-38.41,104.39s11.73,73.87,35.18,97.94c23.46,24.07,50.41,36.08,80.93,36.08s58.44-13.1,82.1-39.37c7.27-8.09,14.33-17.9,21.19-29.49,4.8-7.96,9.46-16.67,13.99-26.27l-8.23-5.01Z"/>
  <path class="cls-1" d="M424.34,285.68c3.36-4.05,5.49-8.3,6.31-12.81v-9.95c-1.92-12.48-10.63-24.02-26.13-34.64-6.86-4.78-14.27-8.56-22.22-11.41v66.76c.96,1.19,1.99,2.32,3.16,3.32,5.21,4.51,11.25,6.77,18.04,6.77,9.4,0,16.32-2.65,20.85-8.03Z"/>
  <path class="cls-1" d="M382.27,273.58s1.61,15.22-3.76,18.5c-5.38,3.29-6.07,3.78-6.07,3.78l12.35.1,11.55-13.24-14.06-9.14Z"/>
  <path class="cls-1" d="M430.65,263.11s1.05,13.9,8.5,13.9,7.13.21,7.13.21v3.19l-20.98,1.06,5.34-18.37Z"/>
</svg>